<?xml version="1.0" encoding="UTF-8" standalone="no"?>
<!-- Created with Inkscape (http://www.inkscape.org/) -->

<svg
   width="200mm"
   height="22mm"
   viewBox="0 0 200 22"
   version="1.1"
   id="svg7963"
   xml:space="preserve"
   inkscape:version="1.2 (dc2aedaf03, 2022-05-15)"
   sodipodi:docname="logo.svg"
   xmlns:inkscape="http://www.inkscape.org/namespaces/inkscape"
   xmlns:sodipodi="http://sodipodi.sourceforge.net/DTD/sodipodi-0.dtd"
   xmlns:xlink="http://www.w3.org/1999/xlink"
   xmlns="http://www.w3.org/2000/svg"
   xmlns:svg="http://www.w3.org/2000/svg"><sodipodi:namedview
     id="namedview7965"
     pagecolor="#ffffff"
     bordercolor="#000000"
     borderopacity="0.25"
     inkscape:showpageshadow="2"
     inkscape:pageopacity="0.0"
     inkscape:pagecheckerboard="0"
     inkscape:deskcolor="#d1d1d1"
     inkscape:document-units="mm"
     showgrid="false"
     inkscape:zoom="1.313495"
     inkscape:cx="304.53104"
     inkscape:cy="28.169121"
     inkscape:window-width="3440"
     inkscape:window-height="1371"
     inkscape:window-x="0"
     inkscape:window-y="0"
     inkscape:window-maximized="1"
     inkscape:current-layer="layer1" /><defs
     id="defs7960"><linearGradient
       inkscape:collect="always"
       id="linearGradient8989"><stop
         style="stop-color:#023047;stop-opacity:1;"
         offset="0"
         id="stop8985" /><stop
         style="stop-color:#219ebc;stop-opacity:1;"
         offset="0.42164144"
         id="stop8993" /><stop
         style="stop-color:#8ecae6;stop-opacity:1;"
         offset="0.64611131"
         id="stop8995" /><stop
         style="stop-color:#ffffff;stop-opacity:1;"
         offset="1"
         id="stop8987" /></linearGradient><linearGradient
       inkscape:collect="always"
       xlink:href="#linearGradient8989"
       id="linearGradient1411"
       gradientUnits="userSpaceOnUse"
       gradientTransform="matrix(0.2606756,0,0,0.20523571,-76.456877,-76.794512)"
       x1="406.27011"
       y1="463.9454"
       x2="281.34344"
       y2="369.40198"
       spreadMethod="pad" /></defs><g
     inkscape:label="Warstwa 1"
     inkscape:groupmode="layer"
     id="layer1"><path
       id="path8958"
       style="fill:url(#linearGradient1411);fill-opacity:1;stroke-width:0.0415025"
       d="m 8.7056189,1.4540479 c -2.507027,0.0272 -4.940503,0.7410599 -7.042231,1.7886901 -0.2625109,0.2441 -0.1553759,0.61261 -0.1957469,0.91281 -0.06879,4.50558 -0.07894,9.01193 -0.03058,13.51767 0.02453,0.73124 0.0039,1.46964 0.05657,2.19644 0.1282419,0.26639 0.5320579,0.34043 0.8479929,0.24923 1.412995,-0.33059 2.825583,-0.70726 4.267802,-0.92243 1.409765,-0.243 2.869858,-0.19496 4.3137201,-0.20392 1.112248,-0.007 2.209064,0.19899 3.191177,0.6023 0.548436,0.18339 1.06589,0.47242 1.666572,0.53196 0.397025,-0.009 0.403982,-0.38374 0.398873,-0.61343 0.06557,-4.80223 0.05952,-9.60498 0.0942,-14.40742 -0.0088,-0.52018 0.02824,-1.04695 -0.0088,-1.56306 -0.335859,-0.34956 -0.844274,-0.59293 -1.323169,-0.8187202 -1.466289,-0.63425 -3.086219,-1.0608399 -4.745476,-1.2332199 -0.4955441,-0.0344 -0.9936801,-0.0411 -1.4908971,-0.0369 z m 15.1406521,0.0885 c -2.412208,0.0313 -4.771195,0.7078599 -6.75618,1.7680601 -0.274579,0.16441 -0.111699,0.4779 -0.164118,0.70831 -0.04323,5.15405 -0.0475,10.30847 -0.0059,15.46253 0.02132,0.20421 -0.09171,0.57401 0.28749,0.6041 0.434402,-0.0109 0.714344,-0.33648 1.096883,-0.4609 1.581149,-0.67573 3.437357,-0.88589 5.225362,-0.80714 1.933181,0.0541 3.827935,0.38524 5.674619,0.84528 0.600215,0.12479 1.189118,0.31487 1.798416,0.39557 0.403982,-0.11233 0.355436,-0.52298 0.370003,-0.79561 0.04348,-4.2586 0.0032,-8.51755 0.0091,-12.77628 -0.01256,-1.00489 0.02028,-2.01649 -0.02046,-3.01721 -0.227899,-0.27449 -0.688784,-0.36365 -1.033376,-0.53309 -1.668884,-0.7006102 -3.474388,-1.2516701 -5.375543,-1.3643401 -0.367863,-0.0242 -0.737203,-0.0339 -1.106296,-0.0292 z m -14.9295311,0.0292 c -2.553087,0.0197 -5.065028,0.6962799 -7.182801,1.7991301 -0.2314089,0.60117 -0.07907,1.27465 -0.144292,1.90083 -0.0202,4.81779 -0.0565,9.63729 0.05441,14.45407 0.02991,0.31391 0.44453,0.40404 0.752476,0.25065 2.265417,-0.5886 4.602354,-1.1539 6.997803,-1.12476 1.5952541,-0.0246 3.2430181,-0.0492 4.6806331,0.58338 0.601489,0.17148 1.17491,0.55799 1.822323,0.56375 0.261695,-0.40369 0.04912,-0.92835 0.133798,-1.37429 0.06365,-5.01614 0.05522,-10.03262 0.07796,-15.04893 C 15.218212,2.844958 13.931371,2.4528478 12.732788,2.0969478 11.507375,1.7588879 10.220007,1.5482079 8.9167489,1.5717479 Z m 14.9126281,0.0948 c -2.392891,0.0437 -4.728783,0.7137199 -6.69771,1.7695001 -0.193734,0.71898 -0.03015,1.50991 -0.08423,2.25702 0,4.71665 0,9.4333 0,14.14995 0.250115,0.34794 0.685038,-0.17382 1.012751,-0.2654 2.52647,-1.15313 5.606762,-1.03144 8.3535,-0.627 1.565603,0.22684 3.082049,0.66943 4.601047,0.9977 0.33787,-0.26469 0.12282,-0.73945 0.206588,-1.08271 0.05042,-5.11442 -0.0095,-10.22914 -0.01071,-15.34367 -0.384093,-0.35581 -1.086329,-0.46507 -1.5976,-0.7211302 C 27.823309,2.0727578 25.8539,1.6379179 23.829381,1.6665479 Z m -15.0650071,-0.003 c -2.475207,0.0528 -4.885359,0.7492999 -6.969215,1.7788501 -0.204552,0.66764 -0.03267,1.41371 -0.08934,2.11216 0.02757,4.65249 -0.05968,9.30649 0.05737,13.95806 -0.03661,0.21082 0.123883,0.56754 0.464445,0.38782 1.922779,-0.51539 3.940096,-0.99758 5.961945,-1.15756 1.8329201,-0.0648 3.7211951,-0.18688 5.4547001,0.40801 0.763608,0.1897 1.445045,0.55005 2.132615,0.835 0.311862,-0.34735 0.05515,-0.89273 0.13886,-1.31796 0,-5.0324 0,-10.06481 0,-15.09721 C 15.227883,3.046158 14.274048,2.7224778 13.395281,2.4033778 11.932944,1.9240978 10.35166,1.6504579 8.7643649,1.6635479 Z M 1.8559539,3.541488 c 4.504474,-2.1878201 9.1132161,-2.5244101 13.8835851,0 v 16.34497 c -3.297549,-1.92306 -8.0887641,-1.69115 -13.8835851,0 z m 29.2182231,0 c -4.504474,-2.1878201 -9.115823,-2.5244101 -13.886178,0 v 16.34497 c 3.297543,-1.92306 8.088758,-1.69115 13.886178,0 z" /><text
       xml:space="preserve"
       style="font-size:11.2889px;white-space:pre;inline-size:8.3034;display:inline;fill:#afc6e9;stroke-width:0.264583"
       x="86.75135"
       y="132.40691"
       id="text9051"><tspan
         x="86.75135"
         y="132.40691"
         id="tspan349"><tspan
           dx="0 6.2766256 8.2521963"
           id="tspan347">EUL</tspan></tspan></text><text
       xml:space="preserve"
       style="font-size:11.2889px;white-space:pre;inline-size:21.4135;display:inline;fill:#afc6e9;stroke-width:0.264583"
       x="82.921867"
       y="141.36214"
       id="text9105"><tspan
         x="82.921867"
         y="141.36214"
         id="tspan353"><tspan
           dx="0 8.1505871 9.2004604"
           style="font-family:C059;-inkscape-font-specification:C059"
           id="tspan351">EUL</tspan></tspan></text><text
       xml:space="preserve"
       style="font-size:12.7px;font-family:C059;-inkscape-font-specification:C059;fill:#442178;stroke-width:0.264583"
       x="35.445221"
       y="15.241515"
       id="text300"><tspan
         sodipodi:role="line"
         id="tspan298"
         style="font-style:normal;font-variant:normal;font-weight:600;font-stretch:normal;font-size:12.7px;font-family:'Edu TAS Beginner';-inkscape-font-specification:'Edu TAS Beginner Semi-Bold';stroke-width:0.264583"
         x="35.445221"
         y="15.241515" /></text><text
       xml:space="preserve"
       style="font-style:normal;font-variant:normal;font-weight:600;font-stretch:normal;font-size:14.1111px;line-height:0;font-family:'Edu TAS Beginner';-inkscape-font-specification:'Edu TAS Beginner Semi-Bold';text-align:center;word-spacing:0px;baseline-shift:baseline;text-anchor:middle;white-space:pre;inline-size:187.101;fill:#442178;stroke-width:0.264583"
       x="106.30106"
       y="15.979594"
       id="use983"
       transform="translate(-1.0787767,-1.4232198)" /><text
       xml:space="preserve"
       style="font-style:normal;font-variant:normal;font-weight:600;font-stretch:normal;font-size:14.1111px;line-height:0px;font-family:'Edu TAS Beginner';-inkscape-font-specification:'Edu TAS Beginner Semi-Bold';text-align:center;text-anchor:middle;fill:#442178;stroke-width:0.264583"
       x="106.24101"
       y="15.390863"
       id="text1555"><tspan
         sodipodi:role="line"
         id="tspan1553"
         style="stroke-width:0.264583"
         x="106.24101"
         y="15.390863" /></text><text
       xml:space="preserve"
       style="font-weight:600;font-size:14.1111px;line-height:0px;font-family:'Edu TAS Beginner';-inkscape-font-specification:'Edu TAS Beginner Semi-Bold';text-align:center;text-anchor:middle;fill:#deaa87;stroke-width:0.264583"
       x="115.32681"
       y="16.032629"
       id="text201"><tspan
         sodipodi:role="line"
         id="tspan199"
         style="font-style:italic;font-variant:normal;font-weight:500;font-stretch:normal;font-family:Finlandica;-inkscape-font-specification:'Finlandica Medium Italic';fill:#deaa87;stroke-width:0.264583"
         x="115.32681"
         y="16.032629">Embedded Utility Libraries</tspan></text></g></svg>
