<?xml version="1.0" encoding="UTF-8" standalone="no"?>
<!-- Created with Inkscape (http://www.inkscape.org/) -->

<svg
   width="33mm"
   height="20mm"
   viewBox="0 0 33 20"
   version="1.1"
   id="svg7963"
   xml:space="preserve"
   inkscape:version="1.2 (dc2aedaf03, 2022-05-15)"
   sodipodi:docname="logo.svg"
   xmlns:inkscape="http://www.inkscape.org/namespaces/inkscape"
   xmlns:sodipodi="http://sodipodi.sourceforge.net/DTD/sodipodi-0.dtd"
   xmlns:xlink="http://www.w3.org/1999/xlink"
   xmlns="http://www.w3.org/2000/svg"
   xmlns:svg="http://www.w3.org/2000/svg"><sodipodi:namedview
     id="namedview7965"
     pagecolor="#ffffff"
     bordercolor="#000000"
     borderopacity="0.25"
     inkscape:showpageshadow="2"
     inkscape:pageopacity="0.0"
     inkscape:pagecheckerboard="0"
     inkscape:deskcolor="#d1d1d1"
     inkscape:document-units="mm"
     showgrid="false"
     inkscape:zoom="2.7865881"
     inkscape:cx="97.251546"
     inkscape:cy="104.42878"
     inkscape:window-width="1920"
     inkscape:window-height="1011"
     inkscape:window-x="0"
     inkscape:window-y="0"
     inkscape:window-maximized="1"
     inkscape:current-layer="layer1" /><defs
     id="defs7960"><linearGradient
       inkscape:collect="always"
       id="linearGradient8989"><stop
         style="stop-color:#023047;stop-opacity:1;"
         offset="0"
         id="stop8985" /><stop
         style="stop-color:#219ebc;stop-opacity:1;"
         offset="0.42164144"
         id="stop8993" /><stop
         style="stop-color:#8ecae6;stop-opacity:1;"
         offset="0.64611131"
         id="stop8995" /><stop
         style="stop-color:#ffffff;stop-opacity:1;"
         offset="1"
         id="stop8987" /></linearGradient><linearGradient
       inkscape:collect="always"
       xlink:href="#linearGradient8989"
       id="linearGradient8991"
       x1="406.27011"
       y1="463.9454"
       x2="281.34344"
       y2="369.40198"
       gradientUnits="userSpaceOnUse"
       spreadMethod="pad"
       gradientTransform="matrix(0.2606756,0,0,0.20523571,-76.456877,-77.641569)" /></defs><g
     inkscape:label="Warstwa 1"
     inkscape:groupmode="layer"
     id="layer1"><path
       id="path8958"
       style="fill:url(#linearGradient8991);fill-opacity:1;stroke-width:0.0415025"
       d="m 8.7056189,0.60699064 c -2.507027,0.0272 -4.940503,0.74105996 -7.042231,1.78869016 -0.2625109,0.2441 -0.1553759,0.61261 -0.1957469,0.91281 -0.06879,4.50558 -0.07894,9.0119302 -0.03058,13.5176702 0.02453,0.73124 0.0039,1.46964 0.05657,2.19644 0.1282419,0.26639 0.5320579,0.34043 0.8479929,0.24923 1.412995,-0.33059 2.825583,-0.70726 4.267802,-0.92243 1.409765,-0.243 2.869858,-0.19496 4.3137201,-0.20392 1.112248,-0.007 2.209064,0.19899 3.191177,0.6023 0.548436,0.18339 1.06589,0.47242 1.666572,0.53196 0.397025,-0.009 0.403982,-0.38374 0.398873,-0.61343 0.06557,-4.80223 0.05952,-9.6049802 0.0942,-14.4074202 -0.0088,-0.52018 0.02824,-1.04695 -0.0088,-1.56306 -0.335859,-0.34956 -0.844274,-0.59293 -1.323169,-0.8187202 -1.466289,-0.63425 -3.086219,-1.06083996 -4.745476,-1.23321996 -0.4955441,-0.0344 -0.9936801,-0.0411 -1.4908971,-0.0369 z m 15.1406521,0.0885 c -2.412208,0.0313 -4.771195,0.70785996 -6.75618,1.76806016 -0.274579,0.16441 -0.111699,0.4779 -0.164118,0.70831 -0.04323,5.15405 -0.0475,10.3084702 -0.0059,15.4625302 0.02132,0.20421 -0.09171,0.57401 0.28749,0.6041 0.434402,-0.0109 0.714344,-0.33648 1.096883,-0.4609 1.581149,-0.67573 3.437357,-0.88589 5.225362,-0.80714 1.933181,0.0541 3.827935,0.38524 5.674619,0.84528 0.600215,0.12479 1.189118,0.31487 1.798416,0.39557 0.403982,-0.11233 0.355436,-0.52298 0.370003,-0.79561 0.04348,-4.2586 0.0032,-8.5175502 0.0091,-12.7762802 -0.01256,-1.00489 0.02028,-2.01649 -0.02046,-3.01721 -0.227899,-0.27449 -0.688784,-0.36365 -1.033376,-0.53309 -1.668884,-0.7006102 -3.474388,-1.25167016 -5.375543,-1.36434016 -0.367863,-0.0242 -0.737203,-0.0339 -1.106296,-0.0292 z m -14.9295311,0.0292 c -2.553087,0.0197 -5.065028,0.69627996 -7.182801,1.79913016 -0.2314089,0.60117 -0.07907,1.27465 -0.144292,1.90083 -0.0202,4.81779 -0.0565,9.6372902 0.05441,14.4540702 0.02991,0.31391 0.44453,0.40404 0.752476,0.25065 2.265417,-0.5886 4.602354,-1.1539 6.997803,-1.12476 1.5952541,-0.0246 3.2430181,-0.0492 4.6806331,0.58338 0.601489,0.17148 1.17491,0.55799 1.822323,0.56375 0.261695,-0.40369 0.04912,-0.92835 0.133798,-1.37429 C 16.09474,12.761311 16.08631,7.7448308 16.10905,2.7285208 15.218212,1.9979008 13.931371,1.6057906 12.732788,1.2498906 11.507375,0.91183064 10.220007,0.70115064 8.9167489,0.72469064 Z m 14.9126281,0.0948 c -2.392891,0.0437 -4.728783,0.71371996 -6.69771,1.76950016 -0.193734,0.71898 -0.03015,1.50991 -0.08423,2.25702 0,4.71665 0,9.4333002 0,14.1499502 0.250115,0.34794 0.685038,-0.17382 1.012751,-0.2654 2.52647,-1.15313 5.606762,-1.03144 8.3535,-0.627 1.565603,0.22684 3.082049,0.66943 4.601047,0.9977 0.33787,-0.26469 0.12282,-0.73945 0.206588,-1.08271 0.05042,-5.11442 -0.0095,-10.2291402 -0.01071,-15.3436702 -0.384093,-0.35581 -1.086329,-0.46507 -1.5976,-0.7211302 C 27.823309,1.2257006 25.8539,0.79086064 23.829381,0.81949064 Z m -15.0650071,-0.003 c -2.475207,0.0528 -4.885359,0.74929996 -6.969215,1.77885016 -0.204552,0.66764 -0.03267,1.41371 -0.08934,2.11216 0.02757,4.65249 -0.05968,9.3064902 0.05737,13.9580602 -0.03661,0.21082 0.123883,0.56754 0.464445,0.38782 1.922779,-0.51539 3.940096,-0.99758 5.961945,-1.15756 1.8329201,-0.0648 3.7211951,-0.18688 5.4547001,0.40801 0.763608,0.1897 1.445045,0.55005 2.132615,0.835 0.311862,-0.34735 0.05515,-0.89273 0.13886,-1.31796 0,-5.0324 0,-10.0648102 0,-15.0972102 C 15.227883,2.1991008 14.274048,1.8754206 13.395281,1.5563206 11.932944,1.0770406 10.35166,0.80340064 8.7643649,0.81649064 Z M 1.8559539,2.6944308 c 4.504474,-2.18782016 9.1132161,-2.52441016 13.8835851,0 V 19.039401 c -3.297549,-1.92306 -8.0887641,-1.69115 -13.8835851,0 z m 29.2182231,0 c -4.504474,-2.18782016 -9.115823,-2.52441016 -13.886178,0 V 19.039401 c 3.297543,-1.92306 8.088758,-1.69115 13.886178,0 z" /><text
       xml:space="preserve"
       style="font-size:11.2889px;white-space:pre;inline-size:8.3034;display:inline;fill:#afc6e9;stroke-width:0.264583"
       x="86.75135"
       y="132.40691"
       id="text9051"><tspan
         x="86.75135"
         y="132.40691"
         id="tspan321"><tspan
           dx="0 6.2766256 8.2521963"
           id="tspan319">EUL</tspan></tspan></text><text
       xml:space="preserve"
       style="font-size:11.2889px;white-space:pre;inline-size:21.4135;display:inline;fill:#afc6e9;stroke-width:0.264583"
       x="82.921867"
       y="141.36214"
       id="text9105"><tspan
         x="82.921867"
         y="141.36214"
         id="tspan325"><tspan
           dx="0 8.1505871 9.2004604"
           style="font-family:C059;-inkscape-font-specification:C059"
           id="tspan323">EUL</tspan></tspan></text></g></svg>
